<?xml version="1.0" standalone="no"?>
<!DOCTYPE svg PUBLIC "-//W3C//DTD SVG 20010904//EN"
 "http://www.w3.org/TR/2001/REC-SVG-20010904/DTD/svg10.dtd">
<svg version="1.0" xmlns="http://www.w3.org/2000/svg"
 width="475.000000pt" height="294.000000pt" viewBox="0 0 475.000000 294.000000"
 preserveAspectRatio="xMidYMid meet">
<metadata>
Created by potrace 1.16, written by Peter Selinger 2001-2019
</metadata>
<g transform="translate(0.000000,294.000000) scale(0.100000,-0.100000)"
fill="#fff" stroke="none">
<path d="M1445 2500 c-129 -17 -276 -68 -400 -138 -278 -156 -472 -430 -537
-757 -6 -33 -12 -125 -12 -205 0 -161 17 -251 74 -396 140 -352 448 -609 817
-680 247 -48 590 13 750 132 l33 25 -41 77 c-23 42 -57 107 -76 143 l-36 66
-82 -38 c-46 -22 -87 -39 -91 -39 -5 0 -146 162 -314 360 l-305 360 -195 -2
-195 -1 -3 45 c-7 111 60 292 152 413 64 83 157 159 251 205 44 21 90 41 101
45 l22 6 -2 -271 c-1 -149 1 -269 5 -268 4 2 112 125 239 273 199 231 236 270
259 269 22 -1 30 7 53 55 16 31 57 92 92 136 77 95 80 90 -75 140 -155 50
-324 66 -484 45z"/>
<path d="M1695 1641 c-84 -39 -135 -120 -135 -216 0 -92 44 -166 124 -208 57
-30 155 -30 212 0 40 21 94 75 94 94 0 5 -18 18 -41 30 -41 20 -41 20 -63 1
-72 -66 -177 -50 -212 33 -20 48 -18 77 9 116 49 73 133 88 192 33 28 -26 28
-26 67 -8 21 10 41 21 44 25 10 16 -30 61 -80 90 -62 35 -147 40 -211 10z"/>
<path d="M2189 1637 c-97 -51 -145 -166 -114 -272 31 -107 114 -169 226 -170
56 0 73 4 115 30 125 78 152 251 56 357 -49 54 -102 78 -178 78 -45 0 -73 -6
-105 -23z m161 -92 c90 -47 96 -178 10 -229 -57 -33 -128 -15 -167 43 -43 63
-19 151 50 185 40 20 70 20 107 1z"/>
<path d="M2698 1652 l-58 -3 0 -225 0 -226 133 4 c112 3 138 7 174 26 127 67
159 233 66 341 -19 23 -49 49 -67 58 -33 18 -154 30 -248 25z m203 -117 c36
-19 59 -63 59 -113 0 -74 -63 -122 -160 -122 l-50 0 0 123 c0 68 3 127 8 131
11 12 109 -2 143 -19z"/>
<path d="M3263 1652 l-93 -3 0 -224 0 -225 140 0 140 0 0 50 0 50 -91 0 -90 0
3 43 3 42 78 3 77 3 0 44 0 45 -37 1 c-124 2 -118 1 -118 39 0 39 -6 37 128
39 l47 1 0 44 0 44 -47 4 c-27 1 -90 2 -140 0z"/>
<path d="M3614 1644 c-84 -41 -91 -182 -12 -225 13 -7 50 -22 82 -33 66 -24
87 -45 67 -70 -21 -25 -85 -20 -118 8 l-28 24 -37 -22 c-44 -24 -46 -33 -16
-71 27 -34 92 -65 138 -65 128 0 205 88 164 189 -18 45 -54 72 -135 100 -61
20 -80 41 -60 65 19 22 53 20 85 -5 27 -21 28 -21 62 -3 47 25 49 29 25 63
-41 57 -148 79 -217 45z"/>
<path d="M3944 1651 c-2 -2 -4 -24 -4 -48 l0 -43 50 0 c46 0 51 -3 61 -27 5
-15 9 -88 9 -162 -1 -75 -1 -144 0 -153 0 -15 9 -18 50 -18 l50 0 2 178 3 177
53 3 53 3 -3 46 -3 45 -158 2 c-87 0 -161 -1 -163 -3z"/>
<path d="M1850 1100 c0 -11 6 -20 14 -20 7 0 25 -9 39 -20 43 -34 80 -36 131
-6 54 32 78 33 117 4 19 -14 44 -23 69 -23 25 0 50 9 69 23 37 27 71 28 104 2
42 -33 76 -34 130 -6 59 32 79 32 118 4 18 -14 44 -23 67 -23 23 0 50 9 69 23
39 27 73 28 106 2 43 -34 80 -36 131 -6 54 32 78 33 117 4 40 -30 98 -30 138
0 37 27 71 28 104 2 43 -34 80 -36 131 -6 54 32 78 33 117 4 18 -14 44 -23 67
-23 23 0 50 9 69 23 39 27 73 28 106 1 43 -33 86 -35 130 -5 21 14 42 26 47
26 6 0 10 9 10 21 0 17 -4 19 -22 13 -13 -4 -34 -15 -47 -25 -31 -25 -65 -24
-102 3 -39 29 -95 29 -136 0 -39 -27 -73 -28 -106 -2 -43 34 -80 36 -131 6
-56 -33 -75 -33 -123 0 -44 30 -85 28 -132 -5 -37 -27 -71 -27 -104 0 -43 33
-86 35 -130 5 -46 -32 -79 -33 -118 -4 -39 29 -95 29 -136 0 -39 -27 -67 -28
-103 -2 -48 34 -84 36 -134 6 -56 -33 -75 -33 -123 0 -44 30 -85 28 -132 -5
-38 -27 -71 -26 -107 2 -19 14 -42 22 -69 22 -27 0 -50 -8 -69 -22 -37 -30
-66 -29 -112 2 -44 30 -64 32 -64 5z"/>
</g>
</svg>
